<svg viewBox="0 0 380.52 190.97" xmlns="http://www.w3.org/2000/svg" xmlns:xlink="http://www.w3.org/1999/xlink"><linearGradient id="a" gradientUnits="userSpaceOnUse" x1="66.01" x2="114.32" y1="296.84" y2="296.84"><stop offset="0" stop-color="#6ad6ff"/><stop offset="1" stop-color="#0077e9"/></linearGradient><linearGradient id="b" x1="115.16" x2="147.55" xlink:href="#a" y1="304.39" y2="304.39"/><linearGradient id="c" gradientTransform="matrix(.98 .06 -.01 .96 27.83 -34.42)" x1="176.88" x2="396.05" xlink:href="#a" y1="228.55" y2="248.3"/><linearGradient id="d" x1="152.31" x2="371.49" xlink:href="#a" y1="178.76" y2="198.51"/><linearGradient id="e" x1="151.98" x2="371.15" xlink:href="#a" y1="182.49" y2="202.23"/><linearGradient id="f" gradientUnits="userSpaceOnUse" x1="88.1" x2="307.28" y1="23.67" y2="43.41"><stop offset="0" stop-color="#fff"/><stop offset="1" stop-color="#edffff"/></linearGradient><g transform="translate(-66.01 -135.1)"><path d="m114.32 296.43v15.37h-13.17v-15.37c0-2.2-1.1-3.3-2.2-3.3s-2.19 1.1-2.19 3.3v15.37h-13.18v-15.37c0-2.2-1.1-3.3-2.19-3.3s-2.2 1.1-2.2 3.3v15.37h-13.19v-29.1h12.64l-.64 2.9a15.08 15.08 0 0 1 9.43-3.72c5.49 0 8.24 5.22 8.24 5.22s3.29-5.22 8.78-5.22 9.87 4.39 9.87 14.55z" fill="url(#a)"/><path d="m133.1 326.07h-12.88l4.55-14.27-9.61-29.1h13.72l2.47 15.37 2.47-15.37h13.73l-10.43 31.3z" fill="url(#b)"/><path d="m168.69 272.55c10.43 0 15.37 6 15.37 6l-6.58 10.45s-3.3-3-7.14-3a6.59 6.59 0 1 0 0 13.17c3.84 0 7.14-3 7.14-3l6.58 10.43s-4.94 6-15.37 6a20 20 0 1 1 0-40.07z" fill="#353535"/><path d="m252.7 311.8-6.58-21.41v21.41h-14.28v-38.43h20.32l6.31 20.86 6.31-20.86h20.31v38.43h-14.27v-21.41l-6.59 21.41z" fill="#353535"/><path d="m324.36 286.27c0 8-5.49 13.45-14.82 13.45-2.2 0-4.94-.27-4.94-.27v12.35h-14.28v-38.43s7.69-.55 16.47-.55c12.08 0 17.57 5.49 17.57 13.45zm-17.57 3a3 3 0 1 0 0-6h-2.19v6z" fill="#353535"/><path d="m363.07 311.8h-15.92l-1.1-5.49h-7.14l-1.09 5.49h-15.92l11.25-38.43h18.67c.05.22 11.25 38.43 11.25 38.43zm-18.67-14.27-1.92-9.89-1.92 9.89z" fill="#353535"/><path d="m379.82 294.78v17h-14.27v-38.41h15.92l9.33 17v-17h14.28v38.43h-15.92z" fill="#353535"/><path d="m426.22 284.35 3.84-11h16.47l-13.17 23.65v14.8h-14.27v-14.8l-13.18-23.61h16.47z" fill="#353535"/><path d="m208.79 272.63v13.75a6.43 6.43 0 0 1 4 6.2c0 3.85-2.75 6.59-6 6.59s-6-2.74-6-6.59a6.42 6.42 0 0 1 4-6.2v-13.75c-11.53.89-19.39 9.31-19.39 19.95 0 11.26 8.78 20 21.41 20s21.41-8.78 21.41-20c-.03-10.64-7.9-19.06-19.43-19.95z" fill="#353535"/><path d="m167.46 247.06c9.61 6.62 22.37 4.2 28.36-5.39l41.72-66.82c6-9.59 3-22.85-6.59-29.48-9.61-6.63-22.37-4.2-28.35 5.38l-41.73 66.82c-5.99 9.59-3.02 22.86 6.59 29.49z" fill="url(#c)"/><path d="m344.67 248.26c-9.85 6.26-22.78 2.89-28.72-7.48l-41.42-72.29c-5.94-10.38-2.74-24 7.11-30.24 9.86-6.26 22.78-2.89 28.73 7.48l41.41 72.27c5.95 10.39 2.75 24-7.11 30.26z" fill="url(#d)"/><path d="m240 248.26c9.85 6.26 22.78 2.89 28.72-7.48l41.42-72.29c5.94-10.38 2.74-24-7.11-30.24-9.85-6.26-22.78-2.89-28.72 7.48l-41.42 72.27c-5.89 10.39-2.74 24 7.11 30.26z" fill="url(#e)"/></g><ellipse cx="152.82" cy="29.5" fill="url(#f)" rx="15.04" ry="15.83"/></svg>