<svg xmlns="http://www.w3.org/2000/svg" width="24" height="24" viewBox="0 0 24 24">
  <g id="그룹_1591" transform="translate(0 0.306)">
    <rect id="사각형_1975" width="24" height="24" transform="translate(0 -0.306)" fill="none"/>
    <g id="fw1Jql" transform="translate(3.153 2.384)">
      <g id="그룹_2" >
        <path id="패스_2" d="M-620.827,48.965a8.177,8.177,0,0,0-6.915,5.338c-1.327,3.507-.445,6.6,2.168,9.256-.053.06-.11.13-.172.195-.31.327-.64.638-.925.985a.9.9,0,0,0-.232.58.731.731,0,0,0,.371.454.517.517,0,0,0,.625-.154c.355-.373.722-.735,1.061-1.122a.322.322,0,0,1,.5-.071,8.141,8.141,0,0,0,5.381,1.185,8.214,8.214,0,0,0,3.424-1.206c.083-.052.168-.1.263-.157.427.451.835.885,1.247,1.314a.605.605,0,0,0,.9.087.61.61,0,0,0-.063-.9c-.385-.406-.769-.813-1.148-1.213a8.2,8.2,0,0,0,2.277-8.876c-1.123-3.383-3.649-5.19-7.129-5.709v-.809c.223,0,.424,0,.625,0,.38-.01.558-.2.56-.6s-.184-.614-.574-.616q-1.449-.007-2.9,0c-.364,0-.54.216-.537.619,0,.387.175.584.53.593.217.006.435,0,.66,0Zm3.566-.4,5.5,3.2a3.188,3.188,0,0,0-1.248-4.4A3.171,3.171,0,0,0-617.261,48.564Zm-10.909,3.328,5.349-3.447a3.154,3.154,0,0,0-4.37-.958A3.2,3.2,0,0,0-628.17,51.892Z" transform="translate(628.664 -46.925)" fill="#bebebe"/>
        <path id="합치기_7" d="M1.822,18.847a.733.733,0,0,1-.371-.455.9.9,0,0,1,.232-.579c.285-.347.615-.658.925-.985.062-.065.119-.135.172-.195C.167,13.977-.716,10.885.612,7.378A8.176,8.176,0,0,1,7.526,2.04V1.217c-.226,0-.443,0-.66,0-.355-.009-.527-.206-.53-.593,0-.4.173-.617.537-.619Q8.321,0,9.771,0c.389,0,.575.21.573.617s-.18.586-.56.6c-.2.005-.4,0-.625,0v.809c3.48.519,6.006,2.326,7.129,5.709a8.2,8.2,0,0,1-2.277,8.876l1.148,1.213a.591.591,0,1,1-.835.814c-.413-.43-.82-.864-1.247-1.314-.1.057-.18.106-.263.158A8.217,8.217,0,0,1,9.39,18.685,8.142,8.142,0,0,1,4.008,17.5a.322.322,0,0,0-.5.071c-.339.387-.706.749-1.061,1.122a.6.6,0,0,1-.421.206A.429.429,0,0,1,1.822,18.847Zm6.805-1.193a7.273,7.273,0,0,0-.01-14.537,7.273,7.273,0,0,1,.009,14.537l-.2,0Zm.155-5.961q.981,1.192,1.974,2.374a.72.72,0,0,0,.3.22.408.408,0,0,0,.5-.19.5.5,0,0,0-.094-.63c-.66-.79-1.322-1.577-1.972-2.375a.5.5,0,0,1-.087-.36,1.011,1.011,0,0,0-.441-1.078A.322.322,0,0,1,8.8,9.319c0-.708,0-1.415,0-2.123h.016c0-.717,0-1.434,0-2.151a.438.438,0,0,0-.4-.471.452.452,0,0,0-.478.433,1.74,1.74,0,0,0,0,.193c0,1.378-.012,2.757-.013,4.136a.494.494,0,0,1-.18.427A.923.923,0,0,0,7.518,10.9a.883.883,0,0,0,.854.587h.005A.472.472,0,0,1,8.782,11.693ZM1.128,10.42c0-.015,0-.03,0-.045C1.128,10.39,1.128,10.406,1.128,10.42Zm0-.13c0-.059,0-.118,0-.177C1.129,10.172,1.128,10.231,1.127,10.29Zm.02-.511c0-.033.006-.066.008-.1C1.153,9.712,1.151,9.746,1.148,9.779Zm.03-.3.006-.048ZM1.234,9.1c.009-.05.018-.1.028-.151C1.252,9,1.243,9.052,1.234,9.1Zm.04-.21c.032-.153.069-.305.111-.456C1.343,8.587,1.306,8.74,1.274,8.892Zm.111-.457a7.324,7.324,0,0,1,.708-1.687A7.324,7.324,0,0,0,1.385,8.436ZM2.122,6.7l.033-.056Zm.067-.111c.056-.092.115-.184.176-.274Q2.273,6.45,2.189,6.588ZM2.4,6.261l0,0Zm.151-.212.041-.055ZM8.46,3.115h0Z" transform="translate(0.311)" fill="#2093f0" stroke="rgba(0,0,0,0)" stroke-miterlimit="10" stroke-width="1"/>
        <path id="패스_4" d="M-422.086,49.625a3.171,3.171,0,0,1,4.255-1.192,3.188,3.188,0,0,1,1.248,4.4Z" transform="translate(433.489 -47.986)" fill="#2093f0"/>
        <path id="패스_5" d="M-628.17,52.882a3.2,3.2,0,0,1,.979-4.405,3.154,3.154,0,0,1,4.37.958Z" transform="translate(628.664 -47.916)" fill="#2093f0"/>
        <path id="패스_7" d="M-487.253,132.4c0,.708,0,1.416,0,2.123a.322.322,0,0,0,.166.333,1.01,1.01,0,0,1,.441,1.078.5.5,0,0,0,.087.36c.649.8,1.312,1.586,1.972,2.375a.5.5,0,0,1,.094.63.408.408,0,0,1-.5.19.72.72,0,0,1-.3-.22q-.994-1.181-1.974-2.374a.472.472,0,0,0-.409-.21.882.882,0,0,1-.854-.587.923.923,0,0,1,.218-1.132.5.5,0,0,0,.181-.427c0-1.379.008-2.758.013-4.136a1.655,1.655,0,0,1,0-.193.452.452,0,0,1,.478-.433.437.437,0,0,1,.4.471c0,.717,0,1.434,0,2.151Z" transform="translate(496.365 -125.204)" fill="#fff"/>
      </g>
    </g>
  </g>
</svg>
