<svg xmlns="http://www.w3.org/2000/svg" width="24" height="24" viewBox="0 0 24 24">
  <g id="그룹_1577" transform="translate(0 -0.047)">
    <rect id="사각형_1973" width="24" height="24" transform="translate(0 0.047)" fill="none"/>
    <path id="합치기_6" d="M2,19.071a2,2,0,0,1-2-2v-2.65a4.992,4.992,0,0,1,1.294-3.4,4.176,4.176,0,0,1,6.256,0c.036.039.071.078.105.118-.063.214-.123.436-.179.661a12.935,12.935,0,0,0,.14,7.116,1.982,1.982,0,0,1-.77.154Zm7.079,0a1,1,0,0,1-1-1V13.226h0A6.279,6.279,0,0,1,9.707,8.951a5.249,5.249,0,0,1,7.863,0A6.279,6.279,0,0,1,19.2,13.225h0V18.07a1,1,0,0,1-1,1ZM1.934,6.392A2.488,2.488,0,1,1,4.423,8.881,2.492,2.492,0,0,1,1.934,6.392ZM10.511,3.13a3.128,3.128,0,1,1,3.128,3.13A3.129,3.129,0,0,1,10.511,3.13Z" transform="translate(2.4 2.409)" fill="#2093f0"/>
  </g>
</svg>
