<svg height="41.213" viewBox="0 0 30.831 41.213" width="30.831" xmlns="http://www.w3.org/2000/svg"><path d="m538.594 634.4h-30.725c-.019-.351-.052-.683-.053-1.016q-.008-18.2-.008-36.4a3.5 3.5 0 0 1 3.69-3.778q11.664-.032 23.329 0a3.472 3.472 0 0 1 3.8 3.554q.018 18.516 0 37.032c.009.168-.014.338-.033.608zm-1.426-5.839c.027-.376.058-.617.059-.858q0-15.221 0-30.442c0-1.866-.749-2.593-2.609-2.594q-11.3-.011-22.6-.006c-2.121 0-2.793.677-2.793 2.836q0 14.907.009 29.814c0 .4.036.8.058 1.244 2.847 0 5.564.02 8.279-.034.251-.005.617-.439.718-.744a5.133 5.133 0 0 1 4.852-3.621 5.079 5.079 0 0 1 4.982 3.57c.084.26.156.524.249.836h8.8zm-10.279 4.362c0-1.374.041-2.659-.01-3.941a3.608 3.608 0 0 0 -3.379-3.382 3.565 3.565 0 0 0 -3.869 2.932 39.441 39.441 0 0 0 -.033 4.391zm-8.879 0v-2.847h-8.71v2.847zm19.162-2.834h-8.725v2.8h8.725z" fill="#2093f0" transform="translate(-507.809 -593.189)"/><path d="m546.427 638.2h-8.8c-.093-.312-.165-.575-.249-.835a5.079 5.079 0 0 0 -4.982-3.57 5.133 5.133 0 0 0 -4.852 3.622c-.1.3-.467.739-.718.744-2.715.054-5.431.034-8.279.034-.021-.446-.057-.845-.057-1.244q-.009-14.907-.009-29.814c0-2.159.672-2.835 2.793-2.836q11.3 0 22.6.006c1.859 0 2.607.728 2.609 2.595q.016 15.221 0 30.441c.003.245-.029.485-.056.857zm-19.177-23.635v-7.235h-7.158v7.235zm1.636-7.247v7.191h7.214v-7.191zm8.816 0v7.182h7.192v-7.181zm-17.659 24.894h7.235v-7.161h-7.235zm8.839-7.2v7.2h7.206v-7.2zm8.789 7.2h7.229v-7.169h-7.234zm-1.574-8.847v-7.186h-7.2v7.186zm-16-7.188v7.176h7.193v-7.176zm24.81 7.186v-7.151h-7.2v7.151z" fill="#fff" transform="translate(-517.068 -602.829)"/><path d="m603.66 844.759h-7.287a39.411 39.411 0 0 1 .033-4.391 3.565 3.565 0 0 1 3.869-2.932 3.608 3.608 0 0 1 3.375 3.381c.05 1.283.01 2.569.01 3.942z" fill="#fff" transform="translate(-584.58 -805.022)"/><path d="m527.75 874.044h-8.711v-2.844h8.711z" fill="#fff" transform="translate(-517.549 -834.311)"/><path d="m672.079 871.29v2.8h-8.725v-2.8z" fill="#fff" transform="translate(-642.716 -834.392)"/><g fill="#2093f0"><path d="m537.755 634.343h-7.155v-7.235h7.158zm-1.425-5.8h-4.3v4.345h4.3z" transform="translate(-527.573 -622.608)"/><path d="m596.883 627.02h7.217v7.191h-7.213zm1.435 5.769h4.3v-4.3h-4.3z" transform="translate(-585.065 -622.531)"/><path d="m663.328 627.039h7.192v7.181h-7.192zm1.452 1.43v4.338h4.307v-4.338z" transform="translate(-642.694 -622.548)"/><path d="m530.23 767.851v-7.161h7.235v7.161zm1.442-1.443h4.317v-4.285h-4.317z" transform="translate(-527.255 -738.466)"/><path d="m596.849 760.417h7.206v7.2h-7.206zm1.462 1.426v4.349h4.283v-4.349z" transform="translate(-585.035 -738.229)"/><path d="m663.091 767.839v-7.169h7.234v7.168zm1.486-5.782v4.353h4.3v-4.353z" transform="translate(-642.488 -738.449)"/><path d="m604.134 701.044h-7.2v-7.186h7.2zm-1.5-1.406v-4.368h-4.224v4.368z" transform="translate(-585.105 -680.501)"/><path d="m530.639 693.843h7.193v7.176h-7.193zm5.712 5.787v-4.362h-4.311v4.362z" transform="translate(-527.61 -680.488)"/><path d="m670.6 701.257h-7.2v-7.151h7.2zm-5.773-1.426h4.328v-4.343h-4.328z" transform="translate(-642.759 -680.716)"/></g><path d="m545.725 637.923v4.345h-4.3v-4.345z" fill="#fff" transform="translate(-536.967 -631.988)"/><path d="m607.7 642.363v-4.3h4.3v4.3z" fill="#fff" transform="translate(-594.448 -632.106)"/><path d="m674.271 637.818h4.307v4.338h-4.307z" fill="#fff" transform="translate(-652.185 -631.897)"/><path d="m541.1 775.779v-4.285h4.317v4.285z" fill="#fff" transform="translate(-536.684 -747.837)"/><path d="m607.865 771.163h4.283v4.349h-4.283z" fill="#fff" transform="translate(-594.59 -747.55)"/><path d="m674.3 771.116h4.3v4.353h-4.3z" fill="#fff" transform="translate(-652.206 -747.509)"/><path d="m612.313 708.87h-4.223v-4.37h4.223z" fill="#fff" transform="translate(-594.785 -689.733)"/><path d="m545.5 708.946h-4.311v-4.362h4.311z" fill="#fff" transform="translate(-536.764 -689.804)"/><path d="m674.12 708.86v-4.343h4.328v4.343z" fill="#fff" transform="translate(-652.054 -689.746)"/></svg>