<svg xmlns="http://www.w3.org/2000/svg" width="25.516" height="25.516" viewBox="0 0 25.516 25.516">
  <g id="합치기_10" transform="translate(0 10.7) rotate(-45)" fill="none">
    <path d="M6.726,20.112V15.243A7.65,7.65,0,0,1,7.566,0a7.65,7.65,0,0,1,.841,15.243v4.869a.841.841,0,0,1-1.681,0Z" stroke="none"/>
    <path d="M 7.566300392150879 13.32485485076904 L 8.184930801391602 13.25576972961426 C 11.00555992126465 12.94077014923096 13.13260078430176 10.52849006652832 13.13260078430176 7.644599914550781 C 13.13260078430176 4.532159805297852 10.63557052612305 2 7.566300392150879 2 C 4.497030258178711 2 2.000000476837158 4.532159805297852 2.000000476837158 7.644599914550781 C 2.000000476837158 10.52849006652832 4.127040386199951 12.94077014923096 6.947670459747314 13.25576972961426 L 7.566300392150879 13.32485485076904 M 7.566300392150879 20.95289993286133 C 7.101900577545166 20.95289993286133 6.725700378417969 20.57670021057129 6.725700378417969 20.11230087280273 L 6.725700378417969 15.24341011047363 C 2.942570447921753 14.82091999053955 3.921508664461726e-07 11.58028030395508 3.921508664461726e-07 7.644599914550781 C 3.921508664461726e-07 3.422699928283691 3.387600421905518 -3.356933575560106e-08 7.566300392150879 -3.356933575560106e-08 C 11.7450008392334 -3.356933575560106e-08 15.13260078430176 3.422699928283691 15.13260078430176 7.644599914550781 C 15.13260078430176 11.58028030395508 12.19003009796143 14.82091999053955 8.406900405883789 15.24341011047363 L 8.406900405883789 20.11230087280273 C 8.406900405883789 20.57670021057129 8.03070068359375 20.95289993286133 7.566300392150879 20.95289993286133 Z" stroke="none" fill="#2093f0"/>
  </g>
</svg>
