<svg xmlns="http://www.w3.org/2000/svg" width="22" height="22" viewBox="0 0 22 22">
  <g id="그룹_1578" transform="translate(-2 -3.047)">
    <g id="그룹_1576" transform="translate(2 3.047)">
      <rect id="사각형_1972" width="22" height="22" fill="none"/>
    </g>
    <path id="합치기_3" d="M7.783,21.475l-5.021-6.59q-.127-.117-.249-.24A8.579,8.579,0,1,1,14.645,2.513a8.578,8.578,0,0,1,0,12.132q-.122.122-.247.238L9.374,21.475a1,1,0,0,1-1.591,0ZM5.9,8.579A2.681,2.681,0,1,0,8.579,5.9,2.684,2.684,0,0,0,5.9,8.579Z" transform="translate(3.833 3.086)" fill="#2093f0"/>
  </g>
</svg>
