<svg xmlns="http://www.w3.org/2000/svg" width="18" height="18" viewBox="0 0 18 18">
  <path id="패스_2279" d="M-602.6,112.345a8.975,8.975,0,0,1,9.282-8.985,8.933,8.933,0,0,1,8.714,8.716,8.96,8.96,0,0,1-8.7,9.278A8.989,8.989,0,0,1-602.6,112.345Zm9.509-3.936h.02c0-.887,0-1.775,0-2.663a.542.542,0,0,0-.5-.582.56.56,0,0,0-.592.535,2.072,2.072,0,0,0,0,.239c-.006,1.707-.015,3.413-.016,5.12a.612.612,0,0,1-.224.529,1.142,1.142,0,0,0-.27,1.4,1.094,1.094,0,0,0,1.059.727.586.586,0,0,1,.507.26q1.216,1.475,2.447,2.938a.893.893,0,0,0,.375.272.506.506,0,0,0,.62-.235.617.617,0,0,0-.116-.779c-.818-.977-1.639-1.952-2.444-2.94a.625.625,0,0,1-.108-.446,1.249,1.249,0,0,0-.547-1.334.4.4,0,0,1-.205-.413C-593.084,110.162-593.087,109.285-593.087,108.409Z" transform="translate(602.596 -103.358)" fill="#2093f0"/>
</svg>
