<svg id="icon_coworkers" xmlns="http://www.w3.org/2000/svg" width="24.773" height="21.729" viewBox="0 0 24.773 21.729">
  <g id="그룹_1752" transform="translate(-351.839 -1181.746)">
    <g id="그룹_1753" transform="translate(34)">
      <g id="타원_281" transform="translate(328.613 1189.474)" fill="#fff" stroke="#2093f0" stroke-width="1.5">
        <circle cx="7" cy="7" r="7" stroke="none"/>
        <circle cx="7" cy="7" r="6.25" fill="none"/>
      </g>
      <path id="패스_2274" d="M3323.4,2591.691l1.908,1.956,3.9-4" transform="translate(-2990.399 -1395.173)" fill="none" stroke="#2093f0" stroke-linecap="round" stroke-linejoin="round" stroke-width="1.5"/>
    </g>
  </g>
  <path id="빼기_9" d="M12.026,22.275H.384a8.35,8.35,0,0,1-.158-1.6,9.077,9.077,0,0,1,9.32-8.79,9.912,9.912,0,0,1,2.1.225,7.25,7.25,0,0,0,.376,10.165ZM9.546,10.229a3.978,3.978,0,1,1,3.979-3.978A3.983,3.983,0,0,1,9.546,10.229Z" transform="translate(-0.227 -2.272)" fill="#2093f0"/>
</svg>
